Coordinates
version=1
nRows=24
nColumns=38
inDegrees=no

Units are S.I. units (second, meters, Newtons, ...)
If the header above contains a line with 'inDegrees', this indicates whether rotational values are in degrees (yes) or radians (no).

endheader
time	pelvis_tilt	pelvis_list	pelvis_rotation	pelvis_tx	pelvis_ty	pelvis_tz	hip_flexion_r	hip_adduction_r	hip_rotation_r	knee_angle_r	ankle_angle_r	subtalar_angle_r	mtp_angle_r	hip_flexion_l	hip_adduction_l	hip_rotation_l	knee_angle_l	ankle_angle_l	subtalar_angle_l	mtp_angle_l	lumbar_extension	lumbar_bending	lumbar_rotation	arm_flex_r	arm_add_r	arm_rot_r	elbow_flex_r	pro_sup_r	wrist_flex_r	wrist_dev_r	arm_flex_l	arm_add_l	arm_rot_l	elbow_flex_l	pro_sup_l	wrist_flex_l	wrist_dev_l
2.25	0.0452486	-0.0143509	-0.0394066	0.909549	1.07515	-0.323264	-0.368777	0.0145978	-0.231385	-0.644637	-0.227468	0.0529922	6.43763e-05	0.418007	0.0230196	-0.0480703	-0.262914	0.120867	0.0618433	4.41804e-05	-0.359492	-0.0649055	0.093661	-0.0764812	-0.44651	0.214868	2.42234	2.10207	0.00752624	-0.0191875	-0.621138	-0.284997	0.0193063	2.1385	1.82476	0.00775153	-0.00801938
2.25833	0.0495454	-0.0139928	-0.0321082	0.910236	1.07254	-0.324038	-0.350548	0.00810689	-0.239268	-0.728445	-0.208658	0.0529922	6.43763e-05	0.410899	0.024798	-0.0626238	-0.27074	0.114678	0.0618433	4.41804e-05	-0.364348	-0.0651286	0.0841851	-0.0974571	-0.444895	0.216125	2.41131	2.09922	0.00752624	-0.0191875	-0.603187	-0.293264	0.0254409	2.13961	1.82775	0.00775153	-0.00801938
2.26667	0.0547628	-0.0113835	-0.0253995	0.910702	1.06936	-0.324831	-0.330324	-0.000927515	-0.244857	-0.815452	-0.192179	0.0529922	6.43763e-05	0.404403	0.0288404	-0.0777847	-0.288926	0.104965	0.0618433	4.41804e-05	-0.370613	-0.0677045	0.0734406	-0.118462	-0.442267	0.214691	2.39608	2.09746	0.00752624	-0.0191875	-0.582658	-0.303034	0.0322589	2.13977	1.82821	0.00775153	-0.00801938
2.275	0.0607912	-0.00659089	-0.0193637	0.910913	1.06561	-0.325624	-0.30846	-0.0121351	-0.248167	-0.904022	-0.178157	0.0529922	6.43763e-05	0.398779	0.0352552	-0.0916056	-0.316938	0.0938042	0.0618433	4.41804e-05	-0.378283	-0.0726289	0.0613878	-0.139016	-0.438518	0.210884	2.3767	2.09701	0.00752624	-0.0191875	-0.559743	-0.314177	0.0395184	2.13885	1.82568	0.00775153	-0.00801938
2.28333	0.067553	0.000255264	-0.0139912	0.910836	1.06136	-0.326394	-0.285221	-0.0250814	-0.249309	-0.992741	-0.166126	0.0529922	6.43763e-05	0.394261	0.0440425	-0.102553	-0.354205	0.0840095	0.0618433	4.41804e-05	-0.387393	-0.0797982	0.0479326	-0.15863	-0.433567	0.205141	2.35308	2.09804	0.00752624	-0.0191875	-0.53455	-0.326531	0.0470451	2.13662	1.8201	0.00775153	-0.00801938
2.29167	0.0750151	0.00898485	-0.00917931	0.910451	1.05676	-0.327119	-0.260807	-0.0393029	-0.248473	-1.08041	-0.155221	0.0529922	6.43763e-05	0.390878	0.0551135	-0.109687	-0.39985	0.0786832	0.0618433	4.41804e-05	-0.398009	-0.0890271	0.032951	-0.176878	-0.427343	0.197941	2.32502	2.10077	0.00752624	-0.0191875	-0.507099	-0.339908	0.0547685	2.13276	1.8118	0.00775153	-0.00801938
2.3	0.0831933	0.019385	-0.00476857	0.909761	1.05203	-0.327773	-0.235352	-0.0543304	-0.24587	-1.166	-0.144407	0.0529922	6.43763e-05	0.388318	0.0682828	-0.112758	-0.452438	0.0805669	0.0618433	4.41804e-05	-0.410179	-0.100065	0.0163548	-0.193476	-0.419782	0.189726	2.29226	2.1055	0.00752624	-0.0191875	-0.477334	-0.354109	0.0627482	2.12685	1.8014	0.00775153	-0.00801938
2.30833	0.0920979	0.0311817	-0.00060164	0.908782	1.04739	-0.328331	-0.208941	-0.0696803	-0.241679	-1.24862	-0.132713	0.0529922	6.43763e-05	0.385867	0.0832344	-0.112167	-0.509851	0.0914116	0.0618433	4.41804e-05	-0.423901	-0.112584	-0.00183542	-0.208332	-0.410846	0.180841	2.25456	2.11262	0.00752624	-0.0191875	-0.445164	-0.368912	0.0711595	2.11847	1.78969	0.00775153	-0.00801938
2.31667	0.101696	0.044018	0.00342851	0.907541	1.043	-0.328776	-0.181597	-0.0848451	-0.236004	-1.32746	-0.119448	0.0529922	6.43763e-05	0.382481	0.0994887	-0.108778	-0.569385	0.111602	0.0618433	4.41804e-05	-0.439078	-0.126158	-0.0214332	-0.221541	-0.400563	0.171525	2.21185	2.12253	0.00752624	-0.0191875	-0.410523	-0.384053	0.0802373	2.10723	1.77752	0.00775153	-0.00801938
2.325	0.11187	0.057432	0.00734719	0.906071	1.03889	-0.329106	-0.153242	-0.0993034	-0.228874	-1.40176	-0.104337	0.0529922	6.43763e-05	0.377002	0.116417	-0.103657	-0.628059	0.140173	0.0618433	4.41804e-05	-0.45546	-0.140251	-0.0420797	-0.233358	-0.389085	0.161923	2.16433	2.13552	0.00752624	-0.0191875	-0.373451	-0.399191	0.0901862	2.09296	1.76569	0.00775153	-0.00801938
2.33333	0.122346	0.0708806	0.0111008	0.904411	1.03509	-0.329338	-0.12366	-0.112552	-0.220281	-1.47084	-0.0875663	0.0529922	6.43763e-05	0.36843	0.133303	-0.097796	-0.683053	0.175176	0.0618433	4.41804e-05	-0.47262	-0.154231	-0.0632954	-0.244128	-0.376726	0.152151	2.11255	2.15169	0.00752624	-0.0191875	-0.334179	-0.413887	0.101066	2.07577	1.75486	0.00775153	-0.00801938
2.34167	0.132714	0.0837943	0.014593	0.9026	1.0316	-0.329503	-0.0924794	-0.124148	-0.210236	-1.53407	-0.0697308	0.0529922	6.43763e-05	0.356174	0.149424	-0.0919227	-0.73209	0.214192	0.0618433	4.41804e-05	-0.489929	-0.167395	-0.0845782	-0.254224	-0.363986	0.142365	2.05749	2.17085	0.00752624	-0.0191875	-0.293203	-0.427611	0.112681	2.05618	1.7455	0.00775153	-0.00801938
2.35	0.142444	0.0955982	0.0177438	0.900678	1.02846	-0.329635	-0.0592242	-0.133756	-0.198831	-1.59094	-0.0516956	0.0529922	6.43763e-05	0.340146	0.164149	-0.0864189	-0.773662	0.2548	0.0618433	4.41804e-05	-0.506611	-0.179053	-0.105508	-0.264003	-0.351522	0.132821	2.00049	2.19254	0.00752624	-0.0191875	-0.251328	-0.439778	0.124509	2.03513	1.73797	0.00775153	-0.00801938
2.35833	0.150951	0.105781	0.0205286	0.898691	1.02573	-0.32978	-0.0234183	-0.141165	-0.186285	-1.64097	-0.0343985	0.0529922	6.43763e-05	0.320717	0.176983	-0.0813475	-0.807051	0.294899	0.0618433	4.41804e-05	-0.521823	-0.18858	-0.125812	-0.273801	-0.340076	0.123878	1.94327	2.21623	0.00752624	-0.0191875	-0.209659	-0.449818	0.13572	2.01395	1.73251	0.00775153	-0.00801938
2.36667	0.157693	0.113961	0.0229922	0.896693	1.02341	-0.329991	0.015282	-0.146279	-0.172968	-1.68377	-0.0186452	0.0529922	6.43763e-05	0.298556	0.187567	-0.0765309	-0.832193	0.332859	0.0618433	4.41804e-05	-0.534765	-0.195463	-0.145372	-0.28396	-0.330376	0.115956	1.88773	2.2414	0.00752624	-0.0191875	-0.169516	-0.457263	0.145264	1.99425	1.72926	0.00775153	-0.00801938
2.375	0.162247	0.119882	0.0252415	0.894743	1.02152	-0.330318	0.0569569	-0.149102	-0.159405	-1.71901	-0.00494429	0.0529922	6.43763e-05	0.274404	0.195669	-0.0716463	-0.849471	0.367548	0.0618433	4.41804e-05	-0.544802	-0.19933	-0.164191	-0.294856	-0.323036	0.109453	1.83585	2.26754	0.00752624	-0.0191875	-0.132288	-0.461817	0.152051	1.97775	1.72837	0.00775153	-0.00801938
2.38333	0.164387	0.123394	0.0274215	0.892902	1.02005	-0.330788	0.101351	-0.149721	-0.146248	-1.74637	0.00658388	0.0529922	6.43763e-05	0.248895	0.201146	-0.0663182	-0.859502	0.398274	0.0618433	4.41804e-05	-0.551537	-0.199969	-0.182319	-0.30692	-0.318464	0.104644	1.78949	2.29415	0.00752624	-0.0191875	-0.0992471	-0.463399	0.155149	1.96604	1.72994	0.00775153	-0.00801938
2.39167	0.164115	0.124443	0.0296795	0.891229	1.01901	-0.3314	0.147874	-0.148303	-0.134235	-1.76562	0.0162049	0.0529922	6.43763e-05	0.222445	0.203927	-0.060198	-0.862964	0.424691	0.0618433	4.41804e-05	-0.554831	-0.197326	-0.199791	-0.320628	-0.31682	0.101592	1.7502	2.32057	0.00752624	-0.0191875	-0.0713702	-0.462149	0.15397	1.96037	1.73407	0.00775153	-0.00801938
2.4	0.161631	0.123064	0.0321308	0.889783	1.01845	-0.332133	0.195676	-0.145086	-0.124125	-1.77663	0.0244754	0.0529922	6.43763e-05	0.195225	0.20399	-0.0530318	-0.860483	0.446669	0.0618433	4.41804e-05	-0.554781	-0.191497	-0.216579	-0.336459	-0.317991	0.100106	1.71908	2.34597	0.00752624	-0.0191875	-0.0492062	-0.458396	0.148393	1.96149	1.74082	0.00775153	-0.00801938
2.40833	0.157281	0.119371	0.0348377	0.888622	1.01838	-0.332957	0.243754	-0.140366	-0.116631	-1.77935	0.0320803	0.0529922	6.43763e-05	0.167204	0.201349	-0.0447138	-0.85257	0.464165	0.0618433	4.41804e-05	-0.551656	-0.182712	-0.23258	-0.354834	-0.321622	0.099736	1.69667	2.36945	0.00752624	-0.0191875	-0.0328313	-0.452606	0.138784	1.96954	1.75015	0.00775153	-0.00801938
2.41667	0.151486	0.113535	0.0378024	0.887795	1.01883	-0.333834	0.291065	-0.134469	-0.112354	-1.77386	0.0396474	0.0529922	6.43763e-05	0.138212	0.196049	-0.0353201	-0.839605	0.47709	0.0618433	4.41804e-05	-0.545843	-0.171302	-0.247632	-0.376047	-0.327161	0.0998384	1.68287	2.39009	0.00752624	-0.0191875	-0.02189	-0.445313	0.12593	1.98407	1.76195	0.00775153	-0.00801938
2.425	0.144685	0.105764	0.04097	0.887338	1.01981	-0.334719	0.33662	-0.127702	-0.111733	-1.76034	0.0475839	0.0529922	6.43763e-05	0.108017	0.188155	-0.0251189	-0.821845	0.485225	0.0618433	4.41804e-05	-0.537794	-0.157662	-0.261545	-0.400205	-0.333931	0.0996696	1.677	2.40715	0.00752624	-0.0191875	-0.0157075	-0.437056	0.1109	2.00415	1.77603	0.00775153	-0.00801938
2.43333	0.137288	0.0962786	0.044239	0.88727	1.02133	-0.335565	0.379551	-0.120302	-0.115002	-1.73901	0.0559777	0.0529922	6.43763e-05	0.0763935	0.177757	-0.0145547	-0.79946	0.488176	0.0618433	4.41804e-05	-0.527986	-0.142213	-0.274141	-0.4272	-0.341206	0.0984907	1.67794	2.42024	0.00752624	-0.0191875	-0.0134376	-0.428325	0.0948712	2.02854	1.79214	0.00775153	-0.00801938
2.44167	0.129644	0.0853011	0.0474732	0.887599	1.0234	-0.336324	0.419159	-0.112397	-0.122163	-1.71017	0.0645795	0.0529922	6.43763e-05	0.0431856	0.164973	-0.00421215	-0.772585	0.48537	0.0618433	4.41804e-05	-0.516878	-0.125366	-0.28528	-0.456706	-0.348288	0.0956632	1.68424	2.42938	0.00752624	-0.0191875	-0.0142057	-0.419531	0.078978	2.05591	1.80992	0.00775153	-0.00801938
